# xmcd
#
# Track frame offsets:
#	150
#	16393
#	32521
#	51343
#	72967
#	89477
#	110811
#	131470
#	156989
#	172896
#
# Disc length: 2640 seconds
#
# Revision: 1
# Processed by: cddbd v1.5.1PL0 Copyright (c) Steve Scherf et al.
# Submitted via: audiograbber 1.81.02
#
DISCID=830a4e0a
DTITLE=Kim Hill - Real Christmas (www.gerth.de)
DYEAR=2004
DGENRE=Christian Rock
TTITLE0=Angels We Have Heard On High
TTITLE1=O Come, O Come Emmanuel
TTITLE2=I Wonder As I Wander
TTITLE3=O Come All Ye Faithful
TTITLE4=O Holy Night
TTITLE5=Gift Of Love
TTITLE6=He Is The King
TTITLE7=What Child Is This?
TTITLE8=God Rest Ye Merry Gentlemen
TTITLE9=Silent Night
EXTD=
EXTT0=
EXTT1=
EXTT2=
EXTT3=
EXTT4=
EXTT5=
EXTT6=
EXTT7=
EXTT8=
EXTT9=
PLAYORDER=
